<svg id="Layer_1" data-name="Layer 1" xmlns="http://www.w3.org/2000/svg" viewBox="0 0 169.06 123.51"><defs><style>.cls-1,.cls-2{fill:#fff}.cls-2{fill-rule:evenodd}.cls-3{clip-path:url(#clip-path)}.cls-4{clip-path:url(#clip-path-2)}.cls-5{clip-path:url(#clip-path-3)}</style><clipPath id="clip-path"><path class="cls-1" d="M37.03 111.06h95v12.45h-95z"/></clipPath><clipPath id="clip-path-2"><path class="cls-1" d="M0-.88h169.27v126.05H0z"/></clipPath><clipPath id="clip-path-3"><path class="cls-1" d="M37.03 0h95v12.45h-95z"/></clipPath></defs><title>Artboard 1</title><path class="cls-2" d="M0 0v123.51h24.7v-12.5H12.38V12.45H24.7V0H0zm144.36 0v12.45h12.33v98.56h-12.33v12.5h24.7V0h-24.7z"/><path class="cls-2" d="M138.49 86l-25.82-25.88 22.19-23h9.49V24.7H106.9v12.46h10.18L100.55 54h-6.08l.12-29.22-12.36-.06v11.83a30.05 30.05 0 0 0-23.91-11.84c-8.6 0-15.58 1.26-21.38 5.8v-5.65H24.76v25.65h12.18q5.18-13.81 18-13.82 10.56 0 16 7.28a28.39 28.39 0 0 1 5.41 17.43q0 10.63-5.73 17.19A18.49 18.49 0 0 1 56 85.15c-8.54 0-15.67-3.1-19.13-12.31H24.7v25.65h12.18v-5.65c5.64 4.4 12.21 5.59 20.47 5.65v.06c11.08 0 19.46-4.26 24.87-11.68v11.62h24.51V86H94.47l-.12-19.6h6.2l31.38 32.09h12.45V86z"/><path class="cls-1" d="M37.03 111.06h95v12.45h-95z"/><g class="cls-3"><path class="cls-1" d="M0-.88h169.27v126.05H0z"/><g class="cls-4"><path class="cls-1" d="M28.03 102.06h113.01v30.46H28.03z"/></g></g><path class="cls-1" d="M37.03 0h95v12.45h-95z"/><g class="cls-5"><path class="cls-1" d="M0-.88h169.27v126.05H0z"/><g class="cls-4"><path class="cls-1" d="M28.03-9h113.01v30.46H28.03z"/></g></g></svg>