<svg id="Layer_1" data-name="Layer 1" xmlns="http://www.w3.org/2000/svg" xmlns:xlink="http://www.w3.org/1999/xlink" viewBox="0 0 169.06 123.51"><defs><style>.cls-1,.cls-2{fill:#fff;}.cls-2{fill-rule:evenodd;}.cls-3{clip-path:url(#clip-path);}.cls-4{clip-path:url(#clip-path-2);}.cls-5{clip-path:url(#clip-path-3);}</style><clipPath id="clip-path"><rect class="cls-1" x="37.03" y="111.06" width="95" height="12.45"/></clipPath><clipPath id="clip-path-2"><rect class="cls-1" y="-0.88" width="169.27" height="126.05"/></clipPath><clipPath id="clip-path-3"><rect class="cls-1" x="37.03" width="95" height="12.45"/></clipPath></defs><title>Artboard 1</title><polygon class="cls-2" points="0 0 0 123.51 24.7 123.51 24.7 111.01 12.38 111.01 12.38 12.45 24.7 12.45 24.7 0 0 0"/><polygon class="cls-2" points="144.36 0 144.36 12.45 156.69 12.45 156.69 111.01 144.36 111.01 144.36 123.51 169.06 123.51 169.06 0 144.36 0"/><path class="cls-2" d="M138.49,86,112.67,60.12l22.19-23h9.49V24.7H106.9V37.16h10.18L100.55,54l-6.08,0,.12-29.22-12.36-.06V36.55A30.05,30.05,0,0,0,58.32,24.71c-8.6,0-15.58,1.26-21.38,5.8V24.86H24.76V50.51H36.94q5.18-13.81,18-13.82,10.56,0,16,7.28a28.39,28.39,0,0,1,5.41,17.43q0,10.63-5.73,17.19A18.49,18.49,0,0,1,56,85.15c-8.54,0-15.67-3.1-19.13-12.31H24.7V98.49H36.88V92.84c5.64,4.4,12.21,5.59,20.47,5.65v.06c11.08,0,19.46-4.26,24.87-11.68V98.49h24.51V86H94.47l-.12-19.6,6.2,0,31.38,32.09,12.45,0V86Z"/><rect class="cls-1" x="37.03" y="111.06" width="95" height="12.45"/><g class="cls-3"><rect class="cls-1" y="-0.88" width="169.27" height="126.05"/><g class="cls-4"><rect class="cls-1" x="28.03" y="102.06" width="113.01" height="30.46"/></g></g><rect class="cls-1" x="37.03" width="95" height="12.45"/><g class="cls-5"><rect class="cls-1" y="-0.88" width="169.27" height="126.05"/><g class="cls-4"><rect class="cls-1" x="28.03" y="-9" width="113.01" height="30.46"/></g></g></svg>